# This file uses centimeters as units for non-parametric coordinates.

g default
v -0.630468 -1.215467 23.151840
v 0.630468 -1.215467 23.151840
v -0.630468 11.731890 23.151840
v 0.630468 11.731890 23.151840
v -0.630468 11.731890 -23.151840
v 0.630468 11.731890 -23.151840
v -0.630468 -1.215467 -23.151840
v 0.630468 -1.215467 -23.151840
vt 0.993227 0.079206
vt 0.993240 0.089705
vt 0.885430 0.089842
vt 0.885416 0.079342
vt 0.499865 0.090329
vt 0.499852 0.079830
vt 0.392054 0.090466
vt 0.392041 0.079966
vt 0.006489 0.090953
vt 0.006476 0.080454
vt 0.101387 0.202835
vt 0.982251 0.200166
vt 0.982997 0.446472
vt 0.102134 0.449141
vt 0.015227 0.651053
vt 0.899899 0.651823
vt 0.899684 0.899193
vt 0.015012 0.898423
vn 0.000000 0.000000 1.000000
vn 0.000000 0.000000 1.000000
vn 0.000000 0.000000 1.000000
vn 0.000000 0.000000 1.000000
vn 0.000000 1.000000 0.000000
vn 0.000000 1.000000 0.000000
vn 0.000000 1.000000 0.000000
vn 0.000000 1.000000 0.000000
vn 0.000000 0.000000 -1.000000
vn 0.000000 0.000000 -1.000000
vn 0.000000 0.000000 -1.000000
vn 0.000000 0.000000 -1.000000
vn 0.000000 -1.000000 0.000000
vn 0.000000 -1.000000 0.000000
vn 0.000000 -1.000000 0.000000
vn 0.000000 -1.000000 0.000000
vn 1.000000 0.000000 0.000000
vn 1.000000 0.000000 0.000000
vn 1.000000 0.000000 0.000000
vn 1.000000 0.000000 0.000000
vn -1.000000 0.000000 0.000000
vn -1.000000 0.000000 0.000000
vn -1.000000 0.000000 0.000000
vn -1.000000 0.000000 0.000000
s off
g Long_Wall:Long_Wall
f 1/1/1 2/2/2 4/3/3 3/4/4
f 3/4/5 4/3/6 6/5/7 5/6/8
f 5/6/9 6/5/10 8/7/11 7/8/12
f 7/8/13 8/7/14 2/9/15 1/10/16
f 2/11/17 8/12/18 6/13/19 4/14/20
f 7/15/21 1/16/22 3/17/23 5/18/24
